<mxfile host="app.diagrams.net" modified="2023-05-07T17:50:42.470Z" agent="Mozilla/5.0 (Macintosh; Intel Mac OS X 10_15_7) AppleWebKit/537.36 (KHTML, like Gecko) Chrome/112.0.0.0 Safari/537.36" etag="TbKUwrQOtAbYdjQbDFrd" version="21.2.9" type="github">
  <diagram id="C5RBs43oDa-KdzZeNtuy" name="Page-1">
    <mxGraphModel dx="3264" dy="1377" grid="1" gridSize="10" guides="1" tooltips="1" connect="1" arrows="1" fold="1" page="1" pageScale="1" pageWidth="827" pageHeight="1169" math="0" shadow="0">
      <root>
        <mxCell id="WIyWlLk6GJQsqaUBKTNV-0" />
        <mxCell id="WIyWlLk6GJQsqaUBKTNV-1" parent="WIyWlLk6GJQsqaUBKTNV-0" />
        <mxCell id="vm9r3D2uJ9Y_jTXmRqwd-94" value="«interface»&lt;br style=&quot;border-color: var(--border-color); font-weight: 400;&quot;&gt;&lt;b style=&quot;border-color: var(--border-color);&quot;&gt;ITeamService&lt;/b&gt;" style="swimlane;fontStyle=1;align=center;verticalAlign=top;childLayout=stackLayout;horizontal=1;startSize=40;horizontalStack=0;resizeParent=1;resizeParentMax=0;resizeLast=0;collapsible=1;marginBottom=0;whiteSpace=wrap;html=1;" vertex="1" parent="WIyWlLk6GJQsqaUBKTNV-1">
          <mxGeometry x="460" y="350" width="270" height="170" as="geometry">
            <mxRectangle x="480" y="430" width="120" height="40" as="alternateBounds" />
          </mxGeometry>
        </mxCell>
        <mxCell id="vm9r3D2uJ9Y_jTXmRqwd-95" value="ITeamService_ CreateTeam()" style="text;strokeColor=none;fillColor=none;align=left;verticalAlign=top;spacingLeft=4;spacingRight=4;overflow=hidden;rotatable=0;points=[[0,0.5],[1,0.5]];portConstraint=eastwest;whiteSpace=wrap;html=1;" vertex="1" parent="vm9r3D2uJ9Y_jTXmRqwd-94">
          <mxGeometry y="40" width="270" height="26" as="geometry" />
        </mxCell>
        <mxCell id="vm9r3D2uJ9Y_jTXmRqwd-100" value="ITeamService_ EditTeam()" style="text;strokeColor=none;fillColor=none;align=left;verticalAlign=top;spacingLeft=4;spacingRight=4;overflow=hidden;rotatable=0;points=[[0,0.5],[1,0.5]];portConstraint=eastwest;whiteSpace=wrap;html=1;" vertex="1" parent="vm9r3D2uJ9Y_jTXmRqwd-94">
          <mxGeometry y="66" width="270" height="26" as="geometry" />
        </mxCell>
        <mxCell id="vm9r3D2uJ9Y_jTXmRqwd-98" value="ITeamService_ DeleteTeam()" style="text;strokeColor=none;fillColor=none;align=left;verticalAlign=top;spacingLeft=4;spacingRight=4;overflow=hidden;rotatable=0;points=[[0,0.5],[1,0.5]];portConstraint=eastwest;whiteSpace=wrap;html=1;" vertex="1" parent="vm9r3D2uJ9Y_jTXmRqwd-94">
          <mxGeometry y="92" width="270" height="26" as="geometry" />
        </mxCell>
        <mxCell id="vm9r3D2uJ9Y_jTXmRqwd-101" value="ITeamService_ AddPlayerToTeam()" style="text;strokeColor=none;fillColor=none;align=left;verticalAlign=top;spacingLeft=4;spacingRight=4;overflow=hidden;rotatable=0;points=[[0,0.5],[1,0.5]];portConstraint=eastwest;whiteSpace=wrap;html=1;" vertex="1" parent="vm9r3D2uJ9Y_jTXmRqwd-94">
          <mxGeometry y="118" width="270" height="26" as="geometry" />
        </mxCell>
        <mxCell id="vm9r3D2uJ9Y_jTXmRqwd-99" value="ITeamService_ RemovePlayerFromTeam()" style="text;strokeColor=none;fillColor=none;align=left;verticalAlign=top;spacingLeft=4;spacingRight=4;overflow=hidden;rotatable=0;points=[[0,0.5],[1,0.5]];portConstraint=eastwest;whiteSpace=wrap;html=1;" vertex="1" parent="vm9r3D2uJ9Y_jTXmRqwd-94">
          <mxGeometry y="144" width="270" height="26" as="geometry" />
        </mxCell>
        <mxCell id="vm9r3D2uJ9Y_jTXmRqwd-103" value="«interface»&lt;br style=&quot;border-color: var(--border-color); font-weight: 400;&quot;&gt;IPlayerService" style="swimlane;fontStyle=1;align=center;verticalAlign=top;childLayout=stackLayout;horizontal=1;startSize=40;horizontalStack=0;resizeParent=1;resizeParentMax=0;resizeLast=0;collapsible=1;marginBottom=0;whiteSpace=wrap;html=1;" vertex="1" parent="WIyWlLk6GJQsqaUBKTNV-1">
          <mxGeometry x="780" y="350" width="270" height="118" as="geometry">
            <mxRectangle x="480" y="430" width="120" height="40" as="alternateBounds" />
          </mxGeometry>
        </mxCell>
        <mxCell id="vm9r3D2uJ9Y_jTXmRqwd-104" value="IPlayerService_ CreatePlayer()" style="text;strokeColor=none;fillColor=none;align=left;verticalAlign=top;spacingLeft=4;spacingRight=4;overflow=hidden;rotatable=0;points=[[0,0.5],[1,0.5]];portConstraint=eastwest;whiteSpace=wrap;html=1;" vertex="1" parent="vm9r3D2uJ9Y_jTXmRqwd-103">
          <mxGeometry y="40" width="270" height="26" as="geometry" />
        </mxCell>
        <mxCell id="vm9r3D2uJ9Y_jTXmRqwd-105" value="IPlayerService_&amp;nbsp;EditPlayer()" style="text;strokeColor=none;fillColor=none;align=left;verticalAlign=top;spacingLeft=4;spacingRight=4;overflow=hidden;rotatable=0;points=[[0,0.5],[1,0.5]];portConstraint=eastwest;whiteSpace=wrap;html=1;" vertex="1" parent="vm9r3D2uJ9Y_jTXmRqwd-103">
          <mxGeometry y="66" width="270" height="26" as="geometry" />
        </mxCell>
        <mxCell id="vm9r3D2uJ9Y_jTXmRqwd-106" value="IPlayerService_&amp;nbsp;DeletePlayer()" style="text;strokeColor=none;fillColor=none;align=left;verticalAlign=top;spacingLeft=4;spacingRight=4;overflow=hidden;rotatable=0;points=[[0,0.5],[1,0.5]];portConstraint=eastwest;whiteSpace=wrap;html=1;" vertex="1" parent="vm9r3D2uJ9Y_jTXmRqwd-103">
          <mxGeometry y="92" width="270" height="26" as="geometry" />
        </mxCell>
        <mxCell id="vm9r3D2uJ9Y_jTXmRqwd-109" value="Team" style="swimlane;fontStyle=1;align=center;verticalAlign=top;childLayout=stackLayout;horizontal=1;startSize=26;horizontalStack=0;resizeParent=1;resizeParentMax=0;resizeLast=0;collapsible=1;marginBottom=0;whiteSpace=wrap;html=1;" vertex="1" parent="WIyWlLk6GJQsqaUBKTNV-1">
          <mxGeometry x="1080" y="347" width="230" height="190" as="geometry" />
        </mxCell>
        <mxCell id="vm9r3D2uJ9Y_jTXmRqwd-110" value="+&amp;nbsp;TeamId: Int" style="text;strokeColor=none;fillColor=none;align=left;verticalAlign=top;spacingLeft=4;spacingRight=4;overflow=hidden;rotatable=0;points=[[0,0.5],[1,0.5]];portConstraint=eastwest;whiteSpace=wrap;html=1;" vertex="1" parent="vm9r3D2uJ9Y_jTXmRqwd-109">
          <mxGeometry y="26" width="230" height="26" as="geometry" />
        </mxCell>
        <mxCell id="vm9r3D2uJ9Y_jTXmRqwd-147" value="+&amp;nbsp;Name: String" style="text;strokeColor=none;fillColor=none;align=left;verticalAlign=top;spacingLeft=4;spacingRight=4;overflow=hidden;rotatable=0;points=[[0,0.5],[1,0.5]];portConstraint=eastwest;whiteSpace=wrap;html=1;" vertex="1" parent="vm9r3D2uJ9Y_jTXmRqwd-109">
          <mxGeometry y="52" width="230" height="26" as="geometry" />
        </mxCell>
        <mxCell id="vm9r3D2uJ9Y_jTXmRqwd-114" value="+ Logo: PNG" style="text;strokeColor=none;fillColor=none;align=left;verticalAlign=top;spacingLeft=4;spacingRight=4;overflow=hidden;rotatable=0;points=[[0,0.5],[1,0.5]];portConstraint=eastwest;whiteSpace=wrap;html=1;" vertex="1" parent="vm9r3D2uJ9Y_jTXmRqwd-109">
          <mxGeometry y="78" width="230" height="26" as="geometry" />
        </mxCell>
        <mxCell id="vm9r3D2uJ9Y_jTXmRqwd-148" value="+&amp;nbsp;Description: String" style="text;strokeColor=none;fillColor=none;align=left;verticalAlign=top;spacingLeft=4;spacingRight=4;overflow=hidden;rotatable=0;points=[[0,0.5],[1,0.5]];portConstraint=eastwest;whiteSpace=wrap;html=1;" vertex="1" parent="vm9r3D2uJ9Y_jTXmRqwd-109">
          <mxGeometry y="104" width="230" height="26" as="geometry" />
        </mxCell>
        <mxCell id="vm9r3D2uJ9Y_jTXmRqwd-115" value="+ MatchHistory : List&amp;lt;String&amp;gt;" style="text;strokeColor=none;fillColor=none;align=left;verticalAlign=top;spacingLeft=4;spacingRight=4;overflow=hidden;rotatable=0;points=[[0,0.5],[1,0.5]];portConstraint=eastwest;whiteSpace=wrap;html=1;" vertex="1" parent="vm9r3D2uJ9Y_jTXmRqwd-109">
          <mxGeometry y="130" width="230" height="26" as="geometry" />
        </mxCell>
        <mxCell id="vm9r3D2uJ9Y_jTXmRqwd-111" value="" style="line;strokeWidth=1;fillColor=none;align=left;verticalAlign=middle;spacingTop=-1;spacingLeft=3;spacingRight=3;rotatable=0;labelPosition=right;points=[];portConstraint=eastwest;strokeColor=inherit;" vertex="1" parent="vm9r3D2uJ9Y_jTXmRqwd-109">
          <mxGeometry y="156" width="230" height="8" as="geometry" />
        </mxCell>
        <mxCell id="vm9r3D2uJ9Y_jTXmRqwd-146" value="+ method(type): type" style="text;strokeColor=none;fillColor=none;align=left;verticalAlign=top;spacingLeft=4;spacingRight=4;overflow=hidden;rotatable=0;points=[[0,0.5],[1,0.5]];portConstraint=eastwest;whiteSpace=wrap;html=1;" vertex="1" parent="vm9r3D2uJ9Y_jTXmRqwd-109">
          <mxGeometry y="164" width="230" height="26" as="geometry" />
        </mxCell>
        <mxCell id="vm9r3D2uJ9Y_jTXmRqwd-122" value="Player" style="swimlane;fontStyle=1;align=center;verticalAlign=top;childLayout=stackLayout;horizontal=1;startSize=26;horizontalStack=0;resizeParent=1;resizeParentMax=0;resizeLast=0;collapsible=1;marginBottom=0;whiteSpace=wrap;html=1;" vertex="1" parent="WIyWlLk6GJQsqaUBKTNV-1">
          <mxGeometry x="1350" y="350" width="230" height="164" as="geometry" />
        </mxCell>
        <mxCell id="vm9r3D2uJ9Y_jTXmRqwd-123" value="+&amp;nbsp;PlayerId: Int" style="text;strokeColor=none;fillColor=none;align=left;verticalAlign=top;spacingLeft=4;spacingRight=4;overflow=hidden;rotatable=0;points=[[0,0.5],[1,0.5]];portConstraint=eastwest;whiteSpace=wrap;html=1;" vertex="1" parent="vm9r3D2uJ9Y_jTXmRqwd-122">
          <mxGeometry y="26" width="230" height="26" as="geometry" />
        </mxCell>
        <mxCell id="vm9r3D2uJ9Y_jTXmRqwd-124" value="+ Name: String" style="text;strokeColor=none;fillColor=none;align=left;verticalAlign=top;spacingLeft=4;spacingRight=4;overflow=hidden;rotatable=0;points=[[0,0.5],[1,0.5]];portConstraint=eastwest;whiteSpace=wrap;html=1;" vertex="1" parent="vm9r3D2uJ9Y_jTXmRqwd-122">
          <mxGeometry y="52" width="230" height="26" as="geometry" />
        </mxCell>
        <mxCell id="vm9r3D2uJ9Y_jTXmRqwd-125" value="+&amp;nbsp;PlayerInfo:&amp;nbsp;PlayerInfo" style="text;strokeColor=none;fillColor=none;align=left;verticalAlign=top;spacingLeft=4;spacingRight=4;overflow=hidden;rotatable=0;points=[[0,0.5],[1,0.5]];portConstraint=eastwest;whiteSpace=wrap;html=1;" vertex="1" parent="vm9r3D2uJ9Y_jTXmRqwd-122">
          <mxGeometry y="78" width="230" height="26" as="geometry" />
        </mxCell>
        <mxCell id="vm9r3D2uJ9Y_jTXmRqwd-126" value="+&amp;nbsp;TeamId&amp;nbsp;: Int" style="text;strokeColor=none;fillColor=none;align=left;verticalAlign=top;spacingLeft=4;spacingRight=4;overflow=hidden;rotatable=0;points=[[0,0.5],[1,0.5]];portConstraint=eastwest;whiteSpace=wrap;html=1;" vertex="1" parent="vm9r3D2uJ9Y_jTXmRqwd-122">
          <mxGeometry y="104" width="230" height="26" as="geometry" />
        </mxCell>
        <mxCell id="vm9r3D2uJ9Y_jTXmRqwd-128" value="" style="line;strokeWidth=1;fillColor=none;align=left;verticalAlign=middle;spacingTop=-1;spacingLeft=3;spacingRight=3;rotatable=0;labelPosition=right;points=[];portConstraint=eastwest;strokeColor=inherit;" vertex="1" parent="vm9r3D2uJ9Y_jTXmRqwd-122">
          <mxGeometry y="130" width="230" height="8" as="geometry" />
        </mxCell>
        <mxCell id="vm9r3D2uJ9Y_jTXmRqwd-145" value="+ method(type): type" style="text;strokeColor=none;fillColor=none;align=left;verticalAlign=top;spacingLeft=4;spacingRight=4;overflow=hidden;rotatable=0;points=[[0,0.5],[1,0.5]];portConstraint=eastwest;whiteSpace=wrap;html=1;" vertex="1" parent="vm9r3D2uJ9Y_jTXmRqwd-122">
          <mxGeometry y="138" width="230" height="26" as="geometry" />
        </mxCell>
        <mxCell id="vm9r3D2uJ9Y_jTXmRqwd-130" value="PlayerInfo" style="swimlane;fontStyle=1;align=center;verticalAlign=top;childLayout=stackLayout;horizontal=1;startSize=26;horizontalStack=0;resizeParent=1;resizeParentMax=0;resizeLast=0;collapsible=1;marginBottom=0;whiteSpace=wrap;html=1;" vertex="1" parent="WIyWlLk6GJQsqaUBKTNV-1">
          <mxGeometry x="1610" y="350" width="170" height="164" as="geometry" />
        </mxCell>
        <mxCell id="vm9r3D2uJ9Y_jTXmRqwd-131" value="+ name: String" style="text;strokeColor=none;fillColor=none;align=left;verticalAlign=top;spacingLeft=4;spacingRight=4;overflow=hidden;rotatable=0;points=[[0,0.5],[1,0.5]];portConstraint=eastwest;whiteSpace=wrap;html=1;" vertex="1" parent="vm9r3D2uJ9Y_jTXmRqwd-130">
          <mxGeometry y="26" width="170" height="26" as="geometry" />
        </mxCell>
        <mxCell id="vm9r3D2uJ9Y_jTXmRqwd-172" value="+ age: Int" style="text;strokeColor=none;fillColor=none;align=left;verticalAlign=top;spacingLeft=4;spacingRight=4;overflow=hidden;rotatable=0;points=[[0,0.5],[1,0.5]];portConstraint=eastwest;whiteSpace=wrap;html=1;" vertex="1" parent="vm9r3D2uJ9Y_jTXmRqwd-130">
          <mxGeometry y="52" width="170" height="26" as="geometry" />
        </mxCell>
        <mxCell id="vm9r3D2uJ9Y_jTXmRqwd-171" value="+ score: Float" style="text;strokeColor=none;fillColor=none;align=left;verticalAlign=top;spacingLeft=4;spacingRight=4;overflow=hidden;rotatable=0;points=[[0,0.5],[1,0.5]];portConstraint=eastwest;whiteSpace=wrap;html=1;" vertex="1" parent="vm9r3D2uJ9Y_jTXmRqwd-130">
          <mxGeometry y="78" width="170" height="26" as="geometry" />
        </mxCell>
        <mxCell id="vm9r3D2uJ9Y_jTXmRqwd-173" value="+ MatchHistory : List&amp;lt;String&amp;gt;" style="text;strokeColor=none;fillColor=none;align=left;verticalAlign=top;spacingLeft=4;spacingRight=4;overflow=hidden;rotatable=0;points=[[0,0.5],[1,0.5]];portConstraint=eastwest;whiteSpace=wrap;html=1;" vertex="1" parent="vm9r3D2uJ9Y_jTXmRqwd-130">
          <mxGeometry y="104" width="170" height="26" as="geometry" />
        </mxCell>
        <mxCell id="vm9r3D2uJ9Y_jTXmRqwd-132" value="" style="line;strokeWidth=1;fillColor=none;align=left;verticalAlign=middle;spacingTop=-1;spacingLeft=3;spacingRight=3;rotatable=0;labelPosition=right;points=[];portConstraint=eastwest;strokeColor=inherit;" vertex="1" parent="vm9r3D2uJ9Y_jTXmRqwd-130">
          <mxGeometry y="130" width="170" height="8" as="geometry" />
        </mxCell>
        <mxCell id="vm9r3D2uJ9Y_jTXmRqwd-133" value="+ method(type): type" style="text;strokeColor=none;fillColor=none;align=left;verticalAlign=top;spacingLeft=4;spacingRight=4;overflow=hidden;rotatable=0;points=[[0,0.5],[1,0.5]];portConstraint=eastwest;whiteSpace=wrap;html=1;" vertex="1" parent="vm9r3D2uJ9Y_jTXmRqwd-130">
          <mxGeometry y="138" width="170" height="26" as="geometry" />
        </mxCell>
        <mxCell id="vm9r3D2uJ9Y_jTXmRqwd-149" value="«interface»&lt;br style=&quot;border-color: var(--border-color); font-weight: 400;&quot;&gt;TournamentGrid" style="swimlane;fontStyle=1;align=center;verticalAlign=top;childLayout=stackLayout;horizontal=1;startSize=40;horizontalStack=0;resizeParent=1;resizeParentMax=0;resizeLast=0;collapsible=1;marginBottom=0;whiteSpace=wrap;html=1;" vertex="1" parent="WIyWlLk6GJQsqaUBKTNV-1">
          <mxGeometry y="350" width="320" height="144" as="geometry">
            <mxRectangle x="480" y="430" width="120" height="40" as="alternateBounds" />
          </mxGeometry>
        </mxCell>
        <mxCell id="vm9r3D2uJ9Y_jTXmRqwd-150" value="TournamentGrid_CreateTournamentGrid()" style="text;strokeColor=none;fillColor=none;align=left;verticalAlign=top;spacingLeft=4;spacingRight=4;overflow=hidden;rotatable=0;points=[[0,0.5],[1,0.5]];portConstraint=eastwest;whiteSpace=wrap;html=1;" vertex="1" parent="vm9r3D2uJ9Y_jTXmRqwd-149">
          <mxGeometry y="40" width="320" height="26" as="geometry" />
        </mxCell>
        <mxCell id="vm9r3D2uJ9Y_jTXmRqwd-151" value="TournamenrGrid_EditTournamentGrid ()" style="text;strokeColor=none;fillColor=none;align=left;verticalAlign=top;spacingLeft=4;spacingRight=4;overflow=hidden;rotatable=0;points=[[0,0.5],[1,0.5]];portConstraint=eastwest;whiteSpace=wrap;html=1;" vertex="1" parent="vm9r3D2uJ9Y_jTXmRqwd-149">
          <mxGeometry y="66" width="320" height="26" as="geometry" />
        </mxCell>
        <mxCell id="vm9r3D2uJ9Y_jTXmRqwd-152" value="TournamentGrid_DeleteTournamentGrid()" style="text;strokeColor=none;fillColor=none;align=left;verticalAlign=top;spacingLeft=4;spacingRight=4;overflow=hidden;rotatable=0;points=[[0,0.5],[1,0.5]];portConstraint=eastwest;whiteSpace=wrap;html=1;" vertex="1" parent="vm9r3D2uJ9Y_jTXmRqwd-149">
          <mxGeometry y="92" width="320" height="26" as="geometry" />
        </mxCell>
        <mxCell id="vm9r3D2uJ9Y_jTXmRqwd-153" value="TournamentGrid_ SimulateTournament()" style="text;strokeColor=none;fillColor=none;align=left;verticalAlign=top;spacingLeft=4;spacingRight=4;overflow=hidden;rotatable=0;points=[[0,0.5],[1,0.5]];portConstraint=eastwest;whiteSpace=wrap;html=1;" vertex="1" parent="vm9r3D2uJ9Y_jTXmRqwd-149">
          <mxGeometry y="118" width="320" height="26" as="geometry" />
        </mxCell>
        <mxCell id="vm9r3D2uJ9Y_jTXmRqwd-155" value="RoundRobinGrid" style="swimlane;fontStyle=1;align=center;verticalAlign=top;childLayout=stackLayout;horizontal=1;startSize=26;horizontalStack=0;resizeParent=1;resizeParentMax=0;resizeLast=0;collapsible=1;marginBottom=0;whiteSpace=wrap;html=1;" vertex="1" parent="WIyWlLk6GJQsqaUBKTNV-1">
          <mxGeometry x="-80" y="585" width="160" height="86" as="geometry" />
        </mxCell>
        <mxCell id="vm9r3D2uJ9Y_jTXmRqwd-156" value="+ field: type" style="text;strokeColor=none;fillColor=none;align=left;verticalAlign=top;spacingLeft=4;spacingRight=4;overflow=hidden;rotatable=0;points=[[0,0.5],[1,0.5]];portConstraint=eastwest;whiteSpace=wrap;html=1;" vertex="1" parent="vm9r3D2uJ9Y_jTXmRqwd-155">
          <mxGeometry y="26" width="160" height="26" as="geometry" />
        </mxCell>
        <mxCell id="vm9r3D2uJ9Y_jTXmRqwd-157" value="" style="line;strokeWidth=1;fillColor=none;align=left;verticalAlign=middle;spacingTop=-1;spacingLeft=3;spacingRight=3;rotatable=0;labelPosition=right;points=[];portConstraint=eastwest;strokeColor=inherit;" vertex="1" parent="vm9r3D2uJ9Y_jTXmRqwd-155">
          <mxGeometry y="52" width="160" height="8" as="geometry" />
        </mxCell>
        <mxCell id="vm9r3D2uJ9Y_jTXmRqwd-158" value="+ method(type): type" style="text;strokeColor=none;fillColor=none;align=left;verticalAlign=top;spacingLeft=4;spacingRight=4;overflow=hidden;rotatable=0;points=[[0,0.5],[1,0.5]];portConstraint=eastwest;whiteSpace=wrap;html=1;" vertex="1" parent="vm9r3D2uJ9Y_jTXmRqwd-155">
          <mxGeometry y="60" width="160" height="26" as="geometry" />
        </mxCell>
        <mxCell id="vm9r3D2uJ9Y_jTXmRqwd-159" value="OlympicGrid" style="swimlane;fontStyle=1;align=center;verticalAlign=top;childLayout=stackLayout;horizontal=1;startSize=26;horizontalStack=0;resizeParent=1;resizeParentMax=0;resizeLast=0;collapsible=1;marginBottom=0;whiteSpace=wrap;html=1;" vertex="1" parent="WIyWlLk6GJQsqaUBKTNV-1">
          <mxGeometry x="130" y="585" width="160" height="86" as="geometry" />
        </mxCell>
        <mxCell id="vm9r3D2uJ9Y_jTXmRqwd-160" value="+ field: type" style="text;strokeColor=none;fillColor=none;align=left;verticalAlign=top;spacingLeft=4;spacingRight=4;overflow=hidden;rotatable=0;points=[[0,0.5],[1,0.5]];portConstraint=eastwest;whiteSpace=wrap;html=1;" vertex="1" parent="vm9r3D2uJ9Y_jTXmRqwd-159">
          <mxGeometry y="26" width="160" height="26" as="geometry" />
        </mxCell>
        <mxCell id="vm9r3D2uJ9Y_jTXmRqwd-161" value="" style="line;strokeWidth=1;fillColor=none;align=left;verticalAlign=middle;spacingTop=-1;spacingLeft=3;spacingRight=3;rotatable=0;labelPosition=right;points=[];portConstraint=eastwest;strokeColor=inherit;" vertex="1" parent="vm9r3D2uJ9Y_jTXmRqwd-159">
          <mxGeometry y="52" width="160" height="8" as="geometry" />
        </mxCell>
        <mxCell id="vm9r3D2uJ9Y_jTXmRqwd-162" value="+ method(type): type" style="text;strokeColor=none;fillColor=none;align=left;verticalAlign=top;spacingLeft=4;spacingRight=4;overflow=hidden;rotatable=0;points=[[0,0.5],[1,0.5]];portConstraint=eastwest;whiteSpace=wrap;html=1;" vertex="1" parent="vm9r3D2uJ9Y_jTXmRqwd-159">
          <mxGeometry y="60" width="160" height="26" as="geometry" />
        </mxCell>
        <mxCell id="vm9r3D2uJ9Y_jTXmRqwd-163" value="DoubleEliminationGrid" style="swimlane;fontStyle=1;align=center;verticalAlign=top;childLayout=stackLayout;horizontal=1;startSize=26;horizontalStack=0;resizeParent=1;resizeParentMax=0;resizeLast=0;collapsible=1;marginBottom=0;whiteSpace=wrap;html=1;" vertex="1" parent="WIyWlLk6GJQsqaUBKTNV-1">
          <mxGeometry x="310" y="585" width="160" height="86" as="geometry" />
        </mxCell>
        <mxCell id="vm9r3D2uJ9Y_jTXmRqwd-164" value="+ field: type" style="text;strokeColor=none;fillColor=none;align=left;verticalAlign=top;spacingLeft=4;spacingRight=4;overflow=hidden;rotatable=0;points=[[0,0.5],[1,0.5]];portConstraint=eastwest;whiteSpace=wrap;html=1;" vertex="1" parent="vm9r3D2uJ9Y_jTXmRqwd-163">
          <mxGeometry y="26" width="160" height="26" as="geometry" />
        </mxCell>
        <mxCell id="vm9r3D2uJ9Y_jTXmRqwd-165" value="" style="line;strokeWidth=1;fillColor=none;align=left;verticalAlign=middle;spacingTop=-1;spacingLeft=3;spacingRight=3;rotatable=0;labelPosition=right;points=[];portConstraint=eastwest;strokeColor=inherit;" vertex="1" parent="vm9r3D2uJ9Y_jTXmRqwd-163">
          <mxGeometry y="52" width="160" height="8" as="geometry" />
        </mxCell>
        <mxCell id="vm9r3D2uJ9Y_jTXmRqwd-166" value="+ method(type): type" style="text;strokeColor=none;fillColor=none;align=left;verticalAlign=top;spacingLeft=4;spacingRight=4;overflow=hidden;rotatable=0;points=[[0,0.5],[1,0.5]];portConstraint=eastwest;whiteSpace=wrap;html=1;" vertex="1" parent="vm9r3D2uJ9Y_jTXmRqwd-163">
          <mxGeometry y="60" width="160" height="26" as="geometry" />
        </mxCell>
        <mxCell id="vm9r3D2uJ9Y_jTXmRqwd-167" value="TournamentGridData" style="swimlane;fontStyle=1;align=center;verticalAlign=top;childLayout=stackLayout;horizontal=1;startSize=26;horizontalStack=0;resizeParent=1;resizeParentMax=0;resizeLast=0;collapsible=1;marginBottom=0;whiteSpace=wrap;html=1;" vertex="1" parent="WIyWlLk6GJQsqaUBKTNV-1">
          <mxGeometry x="1820" y="350" width="160" height="112" as="geometry" />
        </mxCell>
        <mxCell id="vm9r3D2uJ9Y_jTXmRqwd-168" value="+&amp;nbsp;GridType: String" style="text;strokeColor=none;fillColor=none;align=left;verticalAlign=top;spacingLeft=4;spacingRight=4;overflow=hidden;rotatable=0;points=[[0,0.5],[1,0.5]];portConstraint=eastwest;whiteSpace=wrap;html=1;" vertex="1" parent="vm9r3D2uJ9Y_jTXmRqwd-167">
          <mxGeometry y="26" width="160" height="26" as="geometry" />
        </mxCell>
        <mxCell id="vm9r3D2uJ9Y_jTXmRqwd-176" value="+&amp;nbsp;TeamIds:&amp;nbsp;&amp;nbsp;List&amp;lt;Int&amp;gt;" style="text;strokeColor=none;fillColor=none;align=left;verticalAlign=top;spacingLeft=4;spacingRight=4;overflow=hidden;rotatable=0;points=[[0,0.5],[1,0.5]];portConstraint=eastwest;whiteSpace=wrap;html=1;" vertex="1" parent="vm9r3D2uJ9Y_jTXmRqwd-167">
          <mxGeometry y="52" width="160" height="26" as="geometry" />
        </mxCell>
        <mxCell id="vm9r3D2uJ9Y_jTXmRqwd-175" value="+&amp;nbsp;PlayerIds: List&amp;lt;Int&amp;gt;" style="text;strokeColor=none;fillColor=none;align=left;verticalAlign=top;spacingLeft=4;spacingRight=4;overflow=hidden;rotatable=0;points=[[0,0.5],[1,0.5]];portConstraint=eastwest;whiteSpace=wrap;html=1;" vertex="1" parent="vm9r3D2uJ9Y_jTXmRqwd-167">
          <mxGeometry y="78" width="160" height="26" as="geometry" />
        </mxCell>
        <mxCell id="vm9r3D2uJ9Y_jTXmRqwd-169" value="" style="line;strokeWidth=1;fillColor=none;align=left;verticalAlign=middle;spacingTop=-1;spacingLeft=3;spacingRight=3;rotatable=0;labelPosition=right;points=[];portConstraint=eastwest;strokeColor=inherit;" vertex="1" parent="vm9r3D2uJ9Y_jTXmRqwd-167">
          <mxGeometry y="104" width="160" height="8" as="geometry" />
        </mxCell>
        <mxCell id="vm9r3D2uJ9Y_jTXmRqwd-181" value="«interface»&lt;br style=&quot;border-color: var(--border-color); font-weight: 400;&quot;&gt;ITournamentSimulator" style="swimlane;fontStyle=1;align=center;verticalAlign=top;childLayout=stackLayout;horizontal=1;startSize=40;horizontalStack=0;resizeParent=1;resizeParentMax=0;resizeLast=0;collapsible=1;marginBottom=0;whiteSpace=wrap;html=1;" vertex="1" parent="WIyWlLk6GJQsqaUBKTNV-1">
          <mxGeometry x="-440" y="360" width="370" height="66" as="geometry">
            <mxRectangle x="480" y="430" width="120" height="40" as="alternateBounds" />
          </mxGeometry>
        </mxCell>
        <mxCell id="vm9r3D2uJ9Y_jTXmRqwd-182" value="ITournamentSimulator_SimulateTournament(TournamentGrid)" style="text;strokeColor=none;fillColor=none;align=left;verticalAlign=top;spacingLeft=4;spacingRight=4;overflow=hidden;rotatable=0;points=[[0,0.5],[1,0.5]];portConstraint=eastwest;whiteSpace=wrap;html=1;" vertex="1" parent="vm9r3D2uJ9Y_jTXmRqwd-181">
          <mxGeometry y="40" width="370" height="26" as="geometry" />
        </mxCell>
        <mxCell id="vm9r3D2uJ9Y_jTXmRqwd-186" value="RandomTournamentSimulator" style="swimlane;fontStyle=1;align=center;verticalAlign=top;childLayout=stackLayout;horizontal=1;startSize=26;horizontalStack=0;resizeParent=1;resizeParentMax=0;resizeLast=0;collapsible=1;marginBottom=0;whiteSpace=wrap;html=1;" vertex="1" parent="WIyWlLk6GJQsqaUBKTNV-1">
          <mxGeometry x="-440" y="478" width="270" height="86" as="geometry" />
        </mxCell>
        <mxCell id="vm9r3D2uJ9Y_jTXmRqwd-187" value="+ field: type" style="text;strokeColor=none;fillColor=none;align=left;verticalAlign=top;spacingLeft=4;spacingRight=4;overflow=hidden;rotatable=0;points=[[0,0.5],[1,0.5]];portConstraint=eastwest;whiteSpace=wrap;html=1;" vertex="1" parent="vm9r3D2uJ9Y_jTXmRqwd-186">
          <mxGeometry y="26" width="270" height="26" as="geometry" />
        </mxCell>
        <mxCell id="vm9r3D2uJ9Y_jTXmRqwd-188" value="" style="line;strokeWidth=1;fillColor=none;align=left;verticalAlign=middle;spacingTop=-1;spacingLeft=3;spacingRight=3;rotatable=0;labelPosition=right;points=[];portConstraint=eastwest;strokeColor=inherit;" vertex="1" parent="vm9r3D2uJ9Y_jTXmRqwd-186">
          <mxGeometry y="52" width="270" height="8" as="geometry" />
        </mxCell>
        <mxCell id="vm9r3D2uJ9Y_jTXmRqwd-189" value="+&amp;nbsp;SimulateTournament(TournamentGrid)" style="text;strokeColor=none;fillColor=none;align=left;verticalAlign=top;spacingLeft=4;spacingRight=4;overflow=hidden;rotatable=0;points=[[0,0.5],[1,0.5]];portConstraint=eastwest;whiteSpace=wrap;html=1;" vertex="1" parent="vm9r3D2uJ9Y_jTXmRqwd-186">
          <mxGeometry y="60" width="270" height="26" as="geometry" />
        </mxCell>
        <mxCell id="vm9r3D2uJ9Y_jTXmRqwd-190" value="TournamentManagementFacade" style="swimlane;fontStyle=1;align=center;verticalAlign=top;childLayout=stackLayout;horizontal=1;startSize=26;horizontalStack=0;resizeParent=1;resizeParentMax=0;resizeLast=0;collapsible=1;marginBottom=0;whiteSpace=wrap;html=1;" vertex="1" parent="WIyWlLk6GJQsqaUBKTNV-1">
          <mxGeometry x="-740" y="360" width="270" height="448" as="geometry" />
        </mxCell>
        <mxCell id="vm9r3D2uJ9Y_jTXmRqwd-191" value="-&amp;nbsp;teamService:&amp;nbsp;ITeamService" style="text;strokeColor=none;fillColor=none;align=left;verticalAlign=top;spacingLeft=4;spacingRight=4;overflow=hidden;rotatable=0;points=[[0,0.5],[1,0.5]];portConstraint=eastwest;whiteSpace=wrap;html=1;" vertex="1" parent="vm9r3D2uJ9Y_jTXmRqwd-190">
          <mxGeometry y="26" width="270" height="26" as="geometry" />
        </mxCell>
        <mxCell id="vm9r3D2uJ9Y_jTXmRqwd-195" value="-&amp;nbsp;playerService:&amp;nbsp;IPlayerService" style="text;strokeColor=none;fillColor=none;align=left;verticalAlign=top;spacingLeft=4;spacingRight=4;overflow=hidden;rotatable=0;points=[[0,0.5],[1,0.5]];portConstraint=eastwest;whiteSpace=wrap;html=1;" vertex="1" parent="vm9r3D2uJ9Y_jTXmRqwd-190">
          <mxGeometry y="52" width="270" height="26" as="geometry" />
        </mxCell>
        <mxCell id="vm9r3D2uJ9Y_jTXmRqwd-194" value="-&amp;nbsp;tournamentService:&amp;nbsp;ITournamentService" style="text;strokeColor=none;fillColor=none;align=left;verticalAlign=top;spacingLeft=4;spacingRight=4;overflow=hidden;rotatable=0;points=[[0,0.5],[1,0.5]];portConstraint=eastwest;whiteSpace=wrap;html=1;" vertex="1" parent="vm9r3D2uJ9Y_jTXmRqwd-190">
          <mxGeometry y="78" width="270" height="26" as="geometry" />
        </mxCell>
        <mxCell id="vm9r3D2uJ9Y_jTXmRqwd-192" value="" style="line;strokeWidth=1;fillColor=none;align=left;verticalAlign=middle;spacingTop=-1;spacingLeft=3;spacingRight=3;rotatable=0;labelPosition=right;points=[];portConstraint=eastwest;strokeColor=inherit;" vertex="1" parent="vm9r3D2uJ9Y_jTXmRqwd-190">
          <mxGeometry y="104" width="270" height="8" as="geometry" />
        </mxCell>
        <mxCell id="vm9r3D2uJ9Y_jTXmRqwd-193" value="+&amp;nbsp;CreateTeam()" style="text;strokeColor=none;fillColor=none;align=left;verticalAlign=top;spacingLeft=4;spacingRight=4;overflow=hidden;rotatable=0;points=[[0,0.5],[1,0.5]];portConstraint=eastwest;whiteSpace=wrap;html=1;" vertex="1" parent="vm9r3D2uJ9Y_jTXmRqwd-190">
          <mxGeometry y="112" width="270" height="28" as="geometry" />
        </mxCell>
        <mxCell id="vm9r3D2uJ9Y_jTXmRqwd-198" value="+&amp;nbsp;EditTeam()" style="text;strokeColor=none;fillColor=none;align=left;verticalAlign=top;spacingLeft=4;spacingRight=4;overflow=hidden;rotatable=0;points=[[0,0.5],[1,0.5]];portConstraint=eastwest;whiteSpace=wrap;html=1;" vertex="1" parent="vm9r3D2uJ9Y_jTXmRqwd-190">
          <mxGeometry y="140" width="270" height="28" as="geometry" />
        </mxCell>
        <mxCell id="vm9r3D2uJ9Y_jTXmRqwd-201" value="+&amp;nbsp;DeleteTeam()" style="text;strokeColor=none;fillColor=none;align=left;verticalAlign=top;spacingLeft=4;spacingRight=4;overflow=hidden;rotatable=0;points=[[0,0.5],[1,0.5]];portConstraint=eastwest;whiteSpace=wrap;html=1;" vertex="1" parent="vm9r3D2uJ9Y_jTXmRqwd-190">
          <mxGeometry y="168" width="270" height="28" as="geometry" />
        </mxCell>
        <mxCell id="vm9r3D2uJ9Y_jTXmRqwd-203" value="+&amp;nbsp;AddPlayerToTeam()" style="text;strokeColor=none;fillColor=none;align=left;verticalAlign=top;spacingLeft=4;spacingRight=4;overflow=hidden;rotatable=0;points=[[0,0.5],[1,0.5]];portConstraint=eastwest;whiteSpace=wrap;html=1;" vertex="1" parent="vm9r3D2uJ9Y_jTXmRqwd-190">
          <mxGeometry y="196" width="270" height="28" as="geometry" />
        </mxCell>
        <mxCell id="vm9r3D2uJ9Y_jTXmRqwd-205" value="+&amp;nbsp;RemovePlayerFromTeam()" style="text;strokeColor=none;fillColor=none;align=left;verticalAlign=top;spacingLeft=4;spacingRight=4;overflow=hidden;rotatable=0;points=[[0,0.5],[1,0.5]];portConstraint=eastwest;whiteSpace=wrap;html=1;" vertex="1" parent="vm9r3D2uJ9Y_jTXmRqwd-190">
          <mxGeometry y="224" width="270" height="28" as="geometry" />
        </mxCell>
        <mxCell id="vm9r3D2uJ9Y_jTXmRqwd-206" value="+&amp;nbsp;CreatePlayer()" style="text;strokeColor=none;fillColor=none;align=left;verticalAlign=top;spacingLeft=4;spacingRight=4;overflow=hidden;rotatable=0;points=[[0,0.5],[1,0.5]];portConstraint=eastwest;whiteSpace=wrap;html=1;" vertex="1" parent="vm9r3D2uJ9Y_jTXmRqwd-190">
          <mxGeometry y="252" width="270" height="28" as="geometry" />
        </mxCell>
        <mxCell id="vm9r3D2uJ9Y_jTXmRqwd-204" value="+&amp;nbsp;EditPlayer()" style="text;strokeColor=none;fillColor=none;align=left;verticalAlign=top;spacingLeft=4;spacingRight=4;overflow=hidden;rotatable=0;points=[[0,0.5],[1,0.5]];portConstraint=eastwest;whiteSpace=wrap;html=1;" vertex="1" parent="vm9r3D2uJ9Y_jTXmRqwd-190">
          <mxGeometry y="280" width="270" height="28" as="geometry" />
        </mxCell>
        <mxCell id="vm9r3D2uJ9Y_jTXmRqwd-202" value="+&amp;nbsp;DeletePlayer()" style="text;strokeColor=none;fillColor=none;align=left;verticalAlign=top;spacingLeft=4;spacingRight=4;overflow=hidden;rotatable=0;points=[[0,0.5],[1,0.5]];portConstraint=eastwest;whiteSpace=wrap;html=1;" vertex="1" parent="vm9r3D2uJ9Y_jTXmRqwd-190">
          <mxGeometry y="308" width="270" height="28" as="geometry" />
        </mxCell>
        <mxCell id="vm9r3D2uJ9Y_jTXmRqwd-200" value="+&amp;nbsp;CreateTournamentGrid()" style="text;strokeColor=none;fillColor=none;align=left;verticalAlign=top;spacingLeft=4;spacingRight=4;overflow=hidden;rotatable=0;points=[[0,0.5],[1,0.5]];portConstraint=eastwest;whiteSpace=wrap;html=1;" vertex="1" parent="vm9r3D2uJ9Y_jTXmRqwd-190">
          <mxGeometry y="336" width="270" height="28" as="geometry" />
        </mxCell>
        <mxCell id="vm9r3D2uJ9Y_jTXmRqwd-207" value="+&amp;nbsp;EditTournamentGrid()" style="text;strokeColor=none;fillColor=none;align=left;verticalAlign=top;spacingLeft=4;spacingRight=4;overflow=hidden;rotatable=0;points=[[0,0.5],[1,0.5]];portConstraint=eastwest;whiteSpace=wrap;html=1;" vertex="1" parent="vm9r3D2uJ9Y_jTXmRqwd-190">
          <mxGeometry y="364" width="270" height="28" as="geometry" />
        </mxCell>
        <mxCell id="vm9r3D2uJ9Y_jTXmRqwd-199" value="+&amp;nbsp;DeleteTournamentGrid()" style="text;strokeColor=none;fillColor=none;align=left;verticalAlign=top;spacingLeft=4;spacingRight=4;overflow=hidden;rotatable=0;points=[[0,0.5],[1,0.5]];portConstraint=eastwest;whiteSpace=wrap;html=1;" vertex="1" parent="vm9r3D2uJ9Y_jTXmRqwd-190">
          <mxGeometry y="392" width="270" height="28" as="geometry" />
        </mxCell>
        <mxCell id="vm9r3D2uJ9Y_jTXmRqwd-208" value="+&amp;nbsp;SimulateTournament()" style="text;strokeColor=none;fillColor=none;align=left;verticalAlign=top;spacingLeft=4;spacingRight=4;overflow=hidden;rotatable=0;points=[[0,0.5],[1,0.5]];portConstraint=eastwest;whiteSpace=wrap;html=1;" vertex="1" parent="vm9r3D2uJ9Y_jTXmRqwd-190">
          <mxGeometry y="420" width="270" height="28" as="geometry" />
        </mxCell>
      </root>
    </mxGraphModel>
  </diagram>
</mxfile>
